<svg xmlns="http://www.w3.org/2000/svg" viewBox="0 0 100 100" xml:space="preserve" style="max-width:100%"><g fill="currentColor"><path d="M88 21H13c-2.2 0-4 1.8-4 4v51c0 2.2 1.8 4 4 4h75c2.2 0 4-1.8 4-4V25c0-2.2-1.8-4-4-4zM12 33h77v9H12v-9zm1-9h75c.542 0 1 .458 1 1v5H12v-5c0-.542.458-1 1-1zm75 53H13c-.542 0-1-.458-1-1V45h77v31c0 .542-.458 1-1 1z"/><path d="M76.5 55a8.472 8.472 0 0 0-6 2.48 8.5 8.5 0 1 0 0 12.04A8.502 8.502 0 0 0 85 63.5c0-4.694-3.807-8.5-8.5-8.5zm0 14a5.463 5.463 0 0 1-3.882-1.605 2.994 2.994 0 0 0-2.118-.875 2.99 2.99 0 0 0-2.117.875A5.47 5.47 0 0 1 64.5 69c-3.033 0-5.5-2.467-5.5-5.5s2.467-5.5 5.5-5.5a5.47 5.47 0 0 1 3.883 1.605 2.988 2.988 0 0 0 2.117.875c.767 0 1.532-.292 2.118-.875A5.463 5.463 0 0 1 76.5 58c3.033 0 5.5 2.467 5.5 5.5S79.533 69 76.5 69zM42 58H18a1.5 1.5 0 0 0 0 3h24a1.5 1.5 0 0 0 0-3zM29.002 65H18a1.5 1.5 0 0 0 0 3h11.002a1.5 1.5 0 0 0 0-3z"/></g></svg>