<svg xmlns="http://www.w3.org/2000/svg" viewBox="0 0 52 52" xml:space="preserve" style="max-width:100%"><g fill="currentColor"><path d="M34.661 39.887h-17.3c-1.654 0-3-1.346-3-3V21.5a1 1 0 0 1 1-1h21.3a1 1 0 0 1 1 1v15.387c0 1.654-1.345 3-3 3zM16.361 22.5v14.387c0 .552.45 1 1 1h17.3c.552 0 1-.448 1-1V22.5h-19.3z"/><path d="M34.033 22.5H17.99a1 1 0 0 1-1-1v-4.365c0-4.975 4.047-9.021 9.022-9.021s9.021 4.046 9.021 9.021V21.5a1 1 0 0 1-1 1zm-15.043-2h14.043v-3.365c0-3.872-3.15-7.021-7.021-7.021s-7.022 3.149-7.022 7.021V20.5z"/><g><g><path d="M4.958 36.269a1 1 0 0 1-.916-.598C.024 26.54 1.985 16.081 9.038 9.03c9.36-9.358 24.588-9.358 33.947 0a1 1 0 1 1-1.414 1.414c-8.581-8.58-22.54-8.579-31.12 0-6.464 6.464-8.262 16.05-4.578 24.422a1 1 0 0 1-.915 1.403zM26.012 49.989c-6.147 0-12.294-2.34-16.974-7.018a1 1 0 1 1 1.414-1.414c8.579 8.576 22.539 8.578 31.12 0a21.987 21.987 0 0 0 4.176-25.281 1 1 0 0 1 1.794-.885 23.986 23.986 0 0 1-4.557 27.58c-4.68 4.679-10.827 7.018-16.973 7.018z"/></g><path d="M42.278 10.737h-3.536a1 1 0 1 1 0-2h2.536V6.2a1 1 0 1 1 2 0v3.536a1 1 0 0 1-1 1zM9.744 46.8a1 1 0 0 1-1-1v-3.536a1 1 0 0 1 1-1h3.537a1 1 0 1 1 0 2h-2.536v2.535a1 1 0 0 1-1 1z"/></g><g><path d="M26.012 32.113c-1.655 0-3-1.346-3-3s1.345-3 3-3 3 1.345 3 3-1.346 3-3 3zm0-4a1.001 1.001 0 0 0 0 2 1.001 1.001 0 0 0 0-2z"/><path d="M26.012 34.887a1 1 0 0 1-1-1v-2.774a1 1 0 1 1 2 0v2.774a1 1 0 0 1-1 1z"/></g></g></svg>