<svg xmlns="http://www.w3.org/2000/svg" viewBox="0 0 112 96" style="max-width:100%"><path d="M22.232 83.064c-6.868 0-13.564-.42-20.48-1.296A2.003 2.003 0 0 1 0 79.78V31.772c0-.572.248-1.12.676-1.5s.996-.56 1.572-.484c6.752.852 13.3 1.264 20.004 1.264 9.144 0 17.492-.78 25.564-1.532 8.164-.768 16.604-1.556 25.94-1.556 6.876 0 13.572.424 20.484 1.292A1.997 1.997 0 0 1 96 31.24v48c0 .58-.252 1.12-.68 1.5-.428.384-1 .564-1.572.484a157.575 157.575 0 0 0-20.008-1.26c-9.148 0-17.5.776-25.572 1.54-8.16.76-16.6 1.56-25.936 1.56zM4 78.008a156.672 156.672 0 0 0 18.228 1.056c9.148 0 17.5-.78 25.572-1.54 8.168-.764 16.604-1.556 25.94-1.556 6.128 0 12.12.336 18.252 1.024V33.016a157.603 157.603 0 0 0-18.24-1.052c-9.148 0-17.5.78-25.572 1.54-8.164.76-16.6 1.552-25.932 1.552-6.116 0-12.108-.336-18.248-1.028v43.98z" fill="currentColor"/><path d="M102 74.152c-1.1 0-2-.896-2-2V25.92c-17.328-1.992-30.78-.732-43.8.488-13.684 1.28-27.832 2.6-46.448.256a2.011 2.011 0 0 1-1.736-2.236 1.997 1.997 0 0 1 2.236-1.736c18.196 2.296 32.112.988 45.58-.268 13.668-1.28 27.804-2.6 46.424-.26 1 .128 1.752.976 1.752 1.984v48.004a2.015 2.015 0 0 1-2.008 2z" fill="currentColor"/><path d="M110 66.22c-1.1 0-2-.896-2-2V17.988c-17.328-1.992-30.78-.732-43.804.484-13.676 1.28-27.828 2.604-46.444.256a2.006 2.006 0 0 1-1.74-2.236 2 2 0 0 1 2.236-1.736c18.192 2.292 32.108.992 45.572-.268 13.68-1.284 27.812-2.604 46.428-.264A1.997 1.997 0 0 1 112 16.208v48c0 1.116-.9 2.012-2 2.012zM22.232 75.064c-4.156 0-8.208-.164-12.388-.5a2 2 0 0 1-1.832-2.156 1.995 1.995 0 0 1 2.156-1.828c4.076.328 8.024.484 12.068.484 1.104 0 2 .904 2 2-.004 1.1-.904 2-2.004 2z" fill="currentColor"/><path d="M86 40.456c-.056 0-.1 0-.164-.004a147.995 147.995 0 0 0-12.08-.488c-1.1 0-2-.896-2-2s.9-2 2-2c4.188 0 8.244.164 12.4.496a2.01 2.01 0 0 1 1.836 2.156A1.997 1.997 0 0 1 86 40.456zM46.168 64.352c-3.868 0-6.572-2.396-6.572-5.812 0-1.1.896-2 2-2s2 .9 2 2c0 1.58 1.612 1.812 2.572 1.812s2.572-.244 2.572-1.812c0-.928 0-1.076-2.732-2.416l-1.452-.724c-2.66-1.316-4.956-2.44-4.956-6 0-3.44 2.704-5.844 6.572-5.844 3.832 0 6.508 2.404 6.508 5.844a2 2 0 0 1-4 0c0-1.52-1.364-1.844-2.508-1.844-.96 0-2.572.24-2.572 1.844 0 .928 0 1.068 2.728 2.412l1.456.728c2.664 1.312 4.964 2.44 4.964 6-.004 3.416-2.712 5.812-6.58 5.812z" fill="currentColor"/><path d="M46 43.964c-.52 0-1.04-.196-1.4-.6-.4-.356-.6-.876-.6-1.4 0-.52.2-1.04.6-1.4.72-.76 2.04-.76 2.8 0 .4.36.6.88.6 1.4s-.2 1.044-.6 1.4c-.36.404-.88.6-1.4.6z" fill="currentColor"/><path d="M44 41.964h4v4h-4v-4zM46 67.964c-.52 0-1.04-.2-1.4-.596-.4-.36-.6-.88-.6-1.404 0-.52.2-1.044.6-1.404.72-.756 2.08-.756 2.8 0 .4.36.6.884.6 1.404s-.2 1.044-.6 1.404c-.36.396-.88.596-1.4.596z" fill="currentColor"/><path d="M44 61.964h4v4h-4v-4z" fill="currentColor"/></svg>